<svg id="e3CzvYc4gu51" xmlns="http://www.w3.org/2000/svg" xmlns:xlink="http://www.w3.org/1999/xlink" viewBox="0 150 1000 700" shape-rendering="geometricPrecision" text-rendering="geometricPrecision" project-id="d1e951e0246d461bb499c6ca84dc10e1" export-id="d58dd856119e42e08e30e9730764944f" cached="false"><path d="M0,0C1.492672,1.336809,3.003057,2.650668,4.519043,3.960938c5.177524,4.531241,5.177524,4.531241,6.972656,6.375c0,.66,0,1.32,0,2c.66,0,1.32,0,2,0c2.746965,2.907101,5.161954,6.092,7.624512,9.241699.931367,1.190575,1.868064,2.376997,2.80957,3.55957c11.755496,14.804225,20.55321,30.258374,26.565918,48.198731c3.53656,0,5.757894-3.44822,8.1875-5.8125c31.453119-29.801546,75.566904-49.764252,118.8125-53.1875c1.231216-.098372,1.231216-.098372,2.487305-.198731c29.44789-2.201465,57.807621,2.019215,85.512695,12.198731c0,.66,0,1.32,0,2-.587893.200449-1.175786.400898-1.781494.607421-40.013971,13.765899-72.022823,38.093776-91.218506,76.392579-17.479298,36.083484-19.948683,74.804568-21.656738,114.24414-2.062744,46.705066-10.400828,91.083675-32.343262,132.75586-.489844.959062-.979687,1.918125-1.484375,2.90625-8.578561,16.386016-19.969081,31.299001-32.476562,44.867187-1.862477,2.033739-3.639908,4.116075-5.414063,6.226563-25.556988,29.191238-65.968482,50.353202-104.703125,53.46875-11.749966.741592-11.749966.741592-17.390625.195312-4.74813-.452786-7.351968-.585484-11.210937,2.429688-1.856344,1.915531-3.64739,3.83784-5.421875,5.824218-21.014261,23.225907-57.532419,31.668014-87.41211,33.211914-36.895316,1.390951-72.028401-9.202252-99.986328-33.817382-1.169839-1.100805-2.337122-2.204344-3.5-3.3125-.562837.221396-1.125674.442792-1.705566.670898-24.521072,9.604545-47.712654,15.558595-74.169434,15.579102-.781232.000674-1.562464.001349-2.36737.002044-11.825589-.016223-23.215093-.458773-34.75763-3.252044-.685136-.155655-1.370273-.311309-2.076172-.47168-23.590481-5.507377-43.637257-17.881046-60.923828-34.52832-.966797-.872051-.966797-.872051-1.953125-1.761719-13.208265-12.251592-23.929385-31.096145-28.296875-48.425781-2.564617-8.605089-8.537328-11.543991-15.941894-15.746583-12.983776-7.654221-24.827822-20.140487-33.808106-32.065917-.403154-.522876-.806308-1.045752-1.221679-1.584473-11.906494-15.498575-19.709756-32.739055-24.528321-51.665527-.211003-.827901-.422007-1.655801-.639404-2.50879-9.394178-38.594382,1.713063-79.78248,21.389404-113.24121c6.618995-10.622385,14.266808-20.059492,23-29c.786328-.848204,1.572656-1.696407,2.382813-2.570313c13.167713-13.863038,31.47818-26.119089,49.617187-32.429687c1.32,0,2.64,0,4,0-.09539-1.029961-.190781-2.059922-.289062-3.121094-3.034716-36.862616,11.493559-69.654002,34.289062-97.878906.519492-.67418,1.038985-1.34836,1.574219-2.042969c4.383198-5.488417,9.89014-9.685375,15.425781-13.957031.782461-.609727,1.564922-1.219454,2.371094-1.847657c27.075065-20.043766,64.03445-27.699598,97.105957-22.784179c20.784885,3.419845,39.706092,10.346405,57.190918,22.186523c2.375219,1.472079,4.712378,2.486789,7.332031,3.445313.620039-.545274,1.240078-1.090547,1.878906-1.652344c16.232608-13.822526,35.678865-23.461813,56.121094-29.347656.643404-.185464,1.286807-.370928,1.949707-.562012C-104.649316,-51.078029,-40.881254,-36.728111,0,0Z" transform="translate(680.508 276.664)" fill="#b63539"/><path d="M0,0C1.492672,1.336809,3.003057,2.650668,4.519043,3.960938c5.177524,4.531241,5.177524,4.531241,6.972656,6.375c0,.66,0,1.32,0,2c.66,0,1.32,0,2,0c2.746965,2.907101,5.161954,6.092,7.624512,9.241699.931367,1.190575,1.868064,2.376997,2.80957,3.55957c11.755496,14.804225,20.55321,30.258374,26.565918,48.198731c3.53656,0,5.757894-3.44822,8.1875-5.8125c31.453119-29.801546,75.566904-49.764252,118.8125-53.1875c1.231216-.098372,1.231216-.098372,2.487305-.198731c29.44789-2.201465,57.807621,2.019215,85.512695,12.198731c0,.66,0,1.32,0,2-.587893.200449-1.175786.400898-1.781494.607421-40.013971,13.765899-72.022823,38.093776-91.218506,76.392579-17.479298,36.083484-19.948683,74.804568-21.656738,114.24414-2.062744,46.705066-10.400828,91.083675-32.343262,132.75586-.489844.959062-.979687,1.918125-1.484375,2.90625-8.578561,16.386016-19.969081,31.299001-32.476562,44.867187-1.862477,2.033739-3.639908,4.116075-5.414063,6.226563-25.556988,29.191238-65.968482,50.353202-104.703125,53.46875-11.749966.741592-11.749966.741592-17.390625.195312-4.74813-.452786-7.351968-.585484-11.210937,2.429688-1.856344,1.915531-3.64739,3.83784-5.421875,5.824218-21.014261,23.225907-57.532419,31.668014-87.41211,33.211914-36.895316,1.390951-72.028401-9.202252-99.986328-33.817382-1.169839-1.100805-2.337122-2.204344-3.5-3.3125-.562837.221396-1.125674.442792-1.705566.670898-24.521072,9.604545-47.712654,15.558595-74.169434,15.579102-.781232.000674-1.562464.001349-2.36737.002044-11.825589-.016223-23.215093-.458773-34.75763-3.252044-.685136-.155655-1.370273-.311309-2.076172-.47168-23.590481-5.507377-43.637257-17.881046-60.923828-34.52832-.966797-.872051-.966797-.872051-1.953125-1.761719-13.208265-12.251592-23.929385-31.096145-28.296875-48.425781-2.564617-8.605089-8.537328-11.543991-15.941894-15.746583-12.983776-7.654221-24.827822-20.140487-33.808106-32.065917-.403154-.522876-.806308-1.045752-1.221679-1.584473-11.906494-15.498575-19.709756-32.739055-24.528321-51.665527-.211003-.827901-.422007-1.655801-.639404-2.50879-9.394178-38.594382,1.713063-79.78248,21.389404-113.24121c6.618995-10.622385,14.266808-20.059492,23-29c.786328-.848204,1.572656-1.696407,2.382813-2.570313c13.167713-13.863038,31.47818-26.119089,49.617187-32.429687c1.32,0,2.64,0,4,0-.09539-1.029961-.190781-2.059922-.289062-3.121094-3.034716-36.862616,11.493559-69.654002,34.289062-97.878906.519492-.67418,1.038985-1.34836,1.574219-2.042969c4.383198-5.488417,9.89014-9.685375,15.425781-13.957031.782461-.609727,1.564922-1.219454,2.371094-1.847657c27.075065-20.043766,64.03445-27.699598,97.105957-22.784179c20.784885,3.419845,39.706092,10.346405,57.190918,22.186523c2.375219,1.472079,4.712378,2.486789,7.332031,3.445313.620039-.545274,1.240078-1.090547,1.878906-1.652344c16.232608-13.822526,35.678865-23.461813,56.121094-29.347656.643404-.185464,1.286807-.370928,1.949707-.562012C-104.649316,-51.078029,-40.881254,-36.728111,0,0Zm-147.508301-22.664062c-.706889.166289-1.413779.332578-2.14209.503906-20.998784,5.148396-41.692487,15.04679-57.85791,29.496094.849975,3.903411,2.505123,6.57456,4.6875,9.9375c14.843427,23.452814,18.135131,47.104712,12.3125,74.0625-6.56037,27.715303-20.469407,52.360658-45.074219,67.738281-18.362434,10.908241-41.741455,14.67474-62.675781,10.136719-12.728271-3.938835-23.529275-12.911056-30.09375-24.417969-4.217554-8.962303-4.692989-19.252894-2.316406-28.847656c4.673095-12.021025,13.994164-24.580383,25.488281-30.886719.551719-.238477,1.103438-.476953,1.671875-.722656-.580078.908789-1.160156,1.817578-1.757812,2.753906-8.738241,13.9617-16.531291,28.555585-13.886719,45.527344c2.781983,9.11146,11.012719,15.855306,18.894531,20.5625c14.66123,6.16438,33.304133,4.741905,47.848145-1.013672c9.572895-4.178157,17.543547-10.49791,24.901855-17.830078.612305-.589102,1.22461-1.178204,1.855469-1.785157c12.672488-13.194466,19.416227-32.699859,23.144531-50.214843.171284-.778433.342569-1.556866.519043-2.358887c3.924721-21.552095-2.571271-40.883643-14.530762-58.625488-16.899353-22.075424-44.190283-32.393302-70.921875-36.640625-25.923004-2.857375-50.418097,1.972102-73.066406,14.625-.986133.543984-1.972265,1.087968-2.988281,1.648437-25.467975,15.111244-43.211887,43.260256-50.761719,71.414063-.44124,1.973833-.857841,3.953331-1.25,5.9375-.204961,1.005468-.409922,2.010937-.621094,3.046875-2.290287,13.204693-2.678333,27.726821-.378906,40.953125-1.2375.226875-2.475.45375-3.75.6875-20.789466,4.69544-39.080727,17.929439-54.25,32.3125-.474375.441826-.94875.883652-1.4375,1.338867-26.176232,24.489092-42.527761,60.255105-43.726562,96.067383-.816624,35.524909,10.658528,68.222355,34.976562,94.319335c6.463902,6.760621,13.183812,13.362806,21.1875,18.274415.66,0,1.32,0,2,0c.004109-.688118.008218-1.376236.012451-2.085206.280546-26.975043,5.209691-51.657162,22.987549-72.914794.685781-.846915,1.371563-1.693829,2.078125-2.566407c14.470062-17.046565,35.736571-27.974137,57.921875-30.433593c18.093612-.849373,35.734752,2.080055,50,14c.781172.64582,1.562344,1.29164,2.367188,1.957031c7.47233,6.780447,13.908649,16.934178,14.825683,27.202636.41518,12.020078-.016807,21.841197-5.192871,32.840333-.064695-.598367-.129389-1.196734-.196045-1.813233-2.176351-19.452656-5.575863-36.108046-21.276611-49.366455-14.519497-10.457628-31.539555-12.04914-48.911133-9.46582-19.768528,4.317049-36.796269,19.113909-47.616211,35.645508-12.793107,21.694241-15.535435,46.839021-10.042969,71.335937c8.586655,30.165848,25.579846,54.26068,53.024903,69.785156c34.519744,18.959293,74.835103,20.253836,112.199219,9.500244c11.131203-3.4408,21.934506-8.443624,31.818847-14.621337.741211.799218,1.482422,1.598437,2.246094,2.421875c21.287027,22.41518,50.018638,37.908708,81.371414,38.785842c3.50249.072224,7.004331.095631,10.507492.104783.672559.003675,1.345117.007351,2.038056.011138c12.677099.036124,25.341694-.907391,37.586944-4.386138.73678-.208426,1.47356-.416851,2.232666-.631592c13.483416-4.051415,26.128501-10.368479,37.017334-19.305908.657422-.507891,1.314844-1.015782,1.992188-1.539063c1.386388-1.0925,2.70811-2.266617,4.007812-3.460937c0-.66,0-1.32,0-2-1.432793-.436993-1.432793-.436993-2.894531-.882813-16.835195-5.272885-31.198962-13.162529-40.105469-29.117187-7.801823-17.184276-8.213738-35.264956-2-53c7.043392-16.976872,19.590377-28.327671,36.417969-35.371094.52207-.207539,1.044141-.415078,1.582031-.628906-.473086.426679-.946172.853359-1.433594,1.292968-14.898083,14.084933-26.264299,34.735415-26.913574,55.445557-.150733,12.924751,2.559712,23.371782,11.175293,33.386475c12.653015,12.363251,31.85128,18.328953,49.171875,18.875.64856.031098,1.297119.062197,1.965332.094238c33.8537,1.520398,64.88763-10.986502,91.034668-32.094238.833863-.664673.833863-.664673,1.684571-1.342774c12.394279-9.94011,23.640126-21.038736,33.315429-33.657226.41959-.537862.83918-1.075723,1.271485-1.629883c7.936381-10.213023,14.609846-20.981625,20.728515-32.370117.394292-.73106.788584-1.46212,1.194824-2.215333c21.238889-40.131989,26.663049-85.664656,28.619751-130.342193.363602-8.14898.773749-16.295806,1.185425-24.442474.062681-1.260704.125362-2.521407.189942-3.820313c1.8864-35.283661,10.880071-73.061521,31.810058-102.179687.419751-.590552.839502-1.181104,1.271973-1.789551c13.590077-19.016654,28.713673-33.953138,48.728027-46.210449-3.892323-2.605038-8.038035-2.305908-12.542969-2.300782-1.262795-.006427-1.262795-.006427-2.551101-.012985-1.787889-.005742-3.575801-.006244-5.363693-.001907-2.675321.00311-5.349479-.020125-8.024659-.045655-11.192283-.041118-21.565907,1.022246-32.517578,3.361329-1.446828.293515-2.893852.586071-4.341064.877685-25.436516,5.269685-50.283272,17.055864-70.658936,33.122315-.946172.737343-1.892344,1.474687-2.867187,2.234375-5.993321,4.787865-11.780826,9.822916-17.328125,15.121093-2.804688,2.644532-2.804688,2.644532-5.234375,4.570313-6.412648,5.672727-6.643269,12.159663-7.50586,20.229492-3.070898,28.457619-16.082909,54.493154-36.064453,74.844727-.806953.831445-1.613906,1.66289-2.445312,2.519531-17.833934,17.328195-40.640472,23.922629-65.054688,23.917969-.703546.001399-1.407092.002799-2.131958.004241-11.721342-.01913-22.343808-1.306214-33.368042-5.441741-1.129219-.407344-2.258437-.814688-3.421875-1.234375-22.10349-8.639436-41.090023-23.374738-51.148437-45.167969-1.25954-3.171475-2.374381-6.353106-3.429688-9.597656-.318398-.86625-.636797-1.7325-.964844-2.625-4.824544-14.584799-2.914676-31.002327,3.714844-44.5625c7.201974-14.023453,17.57339-21.907791,32.25-27.8125-.424101.389296-.848203.778593-1.285156,1.179687-14.206972,13.551266-22.686399,31.857116-23.152344,51.507813.517653,15.896935,5.928147,29.391766,16.4375,41.3125.644531.738632,1.289063,1.477265,1.953125,2.238281c14.472652,15.517898,36.443184,25.1952,57.53125,26.035156c27.033161.617679,47.926333-6.466919,67.765625-25.085937c20.578237-21.659027,29.579528-51.441087,28.980469-80.707032-.91572-26.466546-18.318929-50.164149-36.230469-68.480468-.9438-1.004183-1.886492-2.009409-2.828125-3.015625-16.067482-16.91813-36.363485-28.995606-58.171875-36.984375-1.027383-.388008-2.054765-.776016-3.113281-1.175782-25.930485-8.895358-57.218148-10.150454-83.886719-3.824218Z" transform="translate(680.508 276.664)" fill="#e8e0dd"/><path d="M0,0C8.197489,1.147956,15.857996,2.950221,23.6875,5.625c1.040918.353364,2.081836.706729,3.154297,1.070801C46.841899,13.642848,64.728959,23.48775,80.508301,37.664063c1.492672,1.336809,3.003057,2.650668,4.519043,3.960937C90.204868,46.156242,90.204868,46.156242,92,48c0,.66,0,1.32,0,2c.66,0,1.32,0,2,0c2.746965,2.907102,5.161954,6.092001,7.624512,9.241699.931366,1.190576,1.868064,2.376997,2.80957,3.559571C116.189578,77.605494,124.987292,93.059644,131,111c3.53656,0,5.757893-3.44822,8.1875-5.8125C158.902575,86.507645,182.762846,73.120584,208,63.375c.664673-.260149,1.329346-.520298,2.01416-.78833C214.634029,60.87801,214.634029,60.87801,218,62c-2.647643,2.647643-5.669009,3.462309-9.125,4.6875-26.437839,9.71423-49.68618,23.16686-70.105469,42.71875C136.268424,111.748612,133.706864,113.901809,131,116c-2.559644-3.914309-4.115449-7.920201-5.625-12.3125C118.131747,83.655235,105.192305,66.641908,91,51c-.465996-.518042-.931992-1.036084-1.412109-1.569824C66.140862,23.693011,32.692902,8.73858,-1,2c.33-.66.66-1.32,1-2Z" transform="translate(600 239)" fill="#f1eae6"/><path d="M0,0C1.410145,2.641305,2.374145,5.069043,3.042969,7.984375C5.663985,18.915677,8.971648,28.940779,14,39c.324521.655649.649043,1.311299.983398,1.986816C24.197727,59.268293,37.848824,74.889735,53.8125,87.625c.58467.46656,1.169341.93312,1.771729,1.413818c2.936918,2.273213,5.816358,4.245871,9.138427,5.914307c11.296296,5.813035,13.516496,13.689198,17.335449,25.382813C86.377975,132.554295,93.762931,143.134833,102,153c.594258.746367,1.188516,1.492734,1.800781,2.261719C108.515096,160.988655,114.136962,165.492484,120,170c.781172.608438,1.562344,1.216875,2.367188,1.84375C133.085037,179.782898,145.648093,185.134097,158,190c-.99.66-1.98,1.32-3,2-2.647728-.874479-4.992578-1.818515-7.5-3-.717605-.328147-1.43521-.656294-2.174561-.994385C130.831946,181.296716,118.632127,172.969661,107,162c-.676758-.612305-1.353516-1.224609-2.050781-1.855469C91.412151,147.421315,80.275661,128.76974,75.75,110.8125c-2.564617-8.605088-8.537328-11.54399-15.941895-15.746582C46.82433,87.411696,34.980284,74.925431,26,63c-.403154-.522876-.806309-1.045752-1.22168-1.584473C12.207018,45.051576,2.705811,25.406024,-1,5c.398438-2.9375.398438-2.9375,1-5Z" transform="translate(148 558)" fill="#f1ebe8"/><path d="M0,0c.66,0,1.32,0,2,0-.52229,4.526513-1.179763,8.970582-2.019531,13.449219-1.32603,7.856487-1.305274,15.680906-1.283203,23.630859-.019981,1.109238-.039961,2.218477-.060547,3.361328-.002981.997171-.005962,1.994341-.009033,3.021729C-2,46,-2,46,-4.380371,47.780518C-6.997035,48.99862,-9.616133,50.09527,-12.3125,51.125C-25.965218,56.753605,-37.78302,64.46223,-49,74c-.939727.79793-1.879453,1.595859-2.847656,2.417969C-57.013827,80.945186,-61.671667,85.670682,-66,91c-1.104082,1.31291-1.104082,1.31291-2.230469,2.652344C-82.522173,111.306802,-91.673295,131.668266,-99,153c-.66-.99-1.32-1.98-2-3c.749886-2.931652,1.603701-5.565445,2.6875-8.375.318157-.837085.636313-1.67417.964111-2.536621C-88.748227,117.209956,-76.4069,97.796381,-60,81c.786328-.848203,1.572656-1.696406,2.382813-2.570312C-44.449474,64.566649,-26.139007,52.310599,-8,46c1.32,0,2.64,0,4,0-.095391-1.029961-.190781-2.059922-.289062-3.121094C-5.504308,28.062397,-4.137434,14.315521,0,0Z" transform="translate(252 342)" fill="#f1eae7"/><path d="M0,0c.99,1.485.99,1.485,2,3-.800416,2.940992-1.701926,5.613341-2.8125,8.4375-.320413.837488-.640825,1.674976-.970947,2.537842-11.380047,29.26492-26.854052,55.666309-48.17749,78.798096C-51.823414,94.807176,-53.600846,96.889513,-55.375,99c-19.553511,22.334057-48.839514,40.60983-77.625,48-.66-.66-1.32-1.32-2-2c.566946-.189976,1.133892-.379951,1.718018-.575684C-96.744069,132.035468,-65.723775,110.588896,-42,80c.703828-.886875,1.407656-1.77375,2.132813-2.6875C-29.235319,63.593959,-20.257335,48.755172,-13,33c.453669-.975498.453669-.975498.916504-1.970703C-7.407447,20.904091,-3.568453,10.561576,0,0Z" transform="translate(815 584)" fill="#f1eae7"/><path d="M0,0C6.750521,1.779109,13.406203,3.704382,20,6c0,.66,0,1.32,0,2-.88184.300674-.88184.300674-1.781494.607422C-23.443966,22.94045,-54.964033,48.386988,-74.5625,88.171875C-76.968866,93.35702,-79.07139,98.620194,-81,104c-.66,0-1.32,0-2,0-.495.99-.495.99-1,2c3.072774-19.214091,16.185896-38.850644,29-53c.911028-1.052632,1.821134-2.106061,2.730469-3.160156C-45.252513,41.835855,-37.621236,35.220238,-29,29c.586201-.429097,1.172402-.858193,1.776367-1.300293C-14.8675,18.739644,-1.325186,12.198788,13,7C8.38,5.35,3.76,3.7,-1,2c.33-.66.66-1.32,1-2Z" transform="translate(926 297)" fill="#f0e9e6"/><path d="M0,0c.495.391875.99.78375,1.5,1.1875-.969375.340313-1.93875.680625-2.9375,1.03125C-20.992336,9.227255,-38.586459,18.730658,-54.5,32.1875c-.415078-.340312-.830156-.680625-1.257812-1.03125C-70.048525,19.91502,-86.316733,13.627268,-103.5,8.1875c.99-.66,1.98-1.32,3-2c14.099469,2.889385,27.867769,10.564001,39.667969,18.554688c2.375219,1.472078,4.712378,2.486789,7.332031,3.445312.620039-.545273,1.240078-1.090547,1.878906-1.652344C-39.260298,16.009588,-25.365026,8.593021,-10.5,2.1875c.706567-.317432,1.413135-.634863,2.141113-.961914C-3.074949,-0.999358,-3.074949,-0.999358,0,0Z" transform="translate(516.5 243.813)" fill="#f0e9e6"/><path d="M0,0c1.369733.030129,2.73953.0575,4.109375.082031c3.340167.070567,6.677078.169131,10.015625.292969c0,.33,0,.66,0,1-2.582392.342687-5.165387.674811-7.75,1-.775532.101917-1.551064.203833-2.350098.308838-4.576872.559921-8.669106.608686-13.274902.128662-3.855025-.078567-5.228262.25399-8.3125,2.652344-1.850517,1.917759-3.640424,3.843713-5.414062,5.828125-15.167597,16.76391-40.301749,26.129886-61.9375,30.085937C-86.875,41.375,-86.875,41.375,-89.875,39.375c1.579746-.346113,1.579746-.346113,3.191406-.699219c22.514071-5.038776,52.743641-13.954965,66.947754-33.90039C-14.793104,-1.71782,-7.445619,-0.284443,0,0Z" transform="translate(643.875 733.625)" fill="#f0e9e6"/><path d="M0,0C2.189719,1.428632,3.940287,2.999169,5.824219,4.8125c16.518282,14.874538,36.008917,22.71805,57.1875,28.5-3,2-3,2-5.355469,1.785156C37.251017,29.890804,14.616941,18.946182,0.144531,3.292969c-2.680866-1.232413-3.320145-.81053-6.03125.1875-1.500974.65335-2.993037,1.327474-4.476562,2.019531-1.486232.661838-2.973199,1.322026-4.460938,1.980469-.710434.317754-1.420869.635508-2.152832.96289-4.83816,2.090781-8.729419,3.120656-14.01123,2.869141c2.08915-2.08915,3.074916-2.506671,5.816406-3.367187.760386-.244278,1.520771-.488555,2.304199-.740235.805825-.253301,1.611651-.506601,2.441895-.767578c5.088488-1.627513,10.011282-3.252633,14.8125-5.625c3.625-1.5,3.625-1.5,5.613281-.8125Z" transform="translate(430.988 738.688)" fill="#f1eae7"/><path d="M0,0c.66.33,1.32.66,2,1-.966797.859805-1.933594,1.719609-2.929687,2.605469C-19.464735,20.323776,-31.675571,39.927606,-41,63c-.66-.33-1.32-.66-2-1c5.201179-17.745199,15.62134-32.695942,27-47c.534961-.692227,1.069922-1.384453,1.621094-2.097656C-10.274216,7.797644,-5.192565,3.950865,0,0Z" transform="translate(298 272)" fill="#f1ebe8"/><path d="M0,0c.66.33,1.32.66,2,1-.447809,4.412876-.91536,8.772455-1.753906,13.128906C-2.718103,30.02696,-2.292567,45.89831,-2,62c-.99.495-.99.495-2,1-2.746554-21.330096-.800284-42.14742,4-63Z" transform="translate(150 495)" fill="#f0e9e5"/><path d="M0,0c1.430859.130518,1.430859.130518,2.890625.263672C7.547783,0.70028,12.1472,1.205267,16.75,2.0625c-.33.66-.66,1.32-1,2-.745239-.071462-1.490479-.142925-2.258301-.216553C1.951347,2.871916,-9.552335,2.950416,-21.125,3c-2.055988.005027-4.111978.009588-6.167969.013672-4.985707.010903-9.971355.0281-14.957031.048828-.33-.66-.66-1.32-1-2c3.457609-.341134,6.916176-.671434,10.375-1c.965508-.095391,1.931016-.190781,2.925781-.289062C-19.821987,-1.178114,-10.116809,-0.979718,0,0Z" transform="translate(581.25 235.938)" fill="#efe8e5"/><path d="M0,0c1.107305.144375,2.214609.28875,3.355469.4375C18.571897,2.260741,33.692798,2.207199,49,2c0,.33,0,.66,0,1-6.019468,1.73865-11.433846,2.350362-17.6875,2.3125-.89614-.001289-1.79228-.002578-2.715576-.003906C18.600521,5.169525,8.838015,3.674556,-1,2c.33-.66.66-1.32,1-2Z" transform="translate(495 773)" fill="#efe8e5"/><path d="M0,0c-2.685942,1.790628-5.068735,2.798562-8.090576,3.852295C-19.726983,7.914494,-30.497791,13.576319,-41,20c-.33-.66-.66-1.32-1-2C-10.226119,-3.541614,-10.226119,-3.541614,0,0Z" transform="translate(342 252)" fill="#f0e9e5"/><path d="M0,0c.33,0,.66,0,1,0c.781674,10.4143,1.10483,20.685471.625,31.125-.043103.965669-.086206,1.931338-.130615,2.92627C1.13482,40.86518,1.13482,40.86518,0,42c-.234278,2.015946-.413361,4.038474-.5625,6.0625-.125684,1.65709-.125684,1.65709-.253906,3.347656C-0.876992,52.264805,-0.937578,53.119453,-1,54c-.33,0-.66,0-1,0-.176002-11.657664.379537-23.238187,1-34.875.096683-1.863264.19304-3.726545.289063-5.589844C-0.47772,9.023233,-0.240106,4.511562,0,0Z" transform="translate(830 466)" fill="#efe8e4"/><path d="M0,0c.33,0,.66,0,1,0C1,2.31,1,4.62,1,7c-.33,0-.66,0-1,0C0,4.69,0,2.38,0,0ZM-1,7c.33,0,.66,0,1,0c1.177318,7.23529.581331,13.161046-.875,20.3125-.186914.975176-.373828,1.950352-.566406,2.955078C-2.203517,34.20515,-2.998292,38.115723,-4,42c-.66,0-1.32,0-2,0c.626848-6.069574,1.452525-12.052485,2.5-18.0625C-2.522837,18.301882,-1.670629,12.681006,-1,7Z" transform="translate(827 523)" fill="#f0e9e6"/><path d="M0,0C2.340615,3.619411,2.005544,6.082138,1.355469,10.261719c-.182403,1.200761-.364805,2.401523-.552735,3.638672-.203027,1.249746-.406054,2.499492-.615234,3.787109-.191426,1.261348-.382852,2.522695-.580078,3.822266C-1.845469,30.845469,-1.845469,30.845469,-3,32c-.230751,1.347471-.411531,2.703776-.5625,4.0625C-3.779062,38.011563,-3.779062,38.011563,-4,40c-.33,0-.66,0-1,0-.153473-6.808632.407504-13.264741,1.375-20c.126328-.933281.252656-1.866562.382813-2.828125C-2.431576,11.367894,-1.344188,5.704034,0,0Z" transform="translate(836 422)" fill="#f0e9e6"/><path d="M0,0c0,.66,0,1.32,0,2-4.378239.049381-8.756331.08571-13.134766.109863-1.489937.010067-2.979855.023722-4.469726.041016-2.139698.024218-4.279136.035597-6.418945.044434-1.288257.010473-2.576514.020947-3.903809.031738C-31,2,-31,2,-33,0c11.133053-1.067328,21.859062-.829509,33,0Z" transform="translate(396 246)" fill="#eee7e3"/><path d="M0,0c0,.66,0,1.32,0,2-9.723953-.632723-19.344557-1.72335-29-3c0-.33,0-.66,0-1c9.405281-2.307938,19.675995.075406,29,2Z" transform="translate(915 294)" fill="#f0e9e5"/><path d="M0,0c.66.33,1.32.66,2,1-.614883.941016-1.229766,1.882031-1.863281,2.851563C-0.679852,5.109269,-1.496249,6.367087,-2.3125,7.625c-.404121.617461-.808242,1.234922-1.224609,1.871094C-5.952785,13.227626,-8.087444,16.976823,-10,21c-.66-.33-1.32-.66-2-1c3.465-6.435,3.465-6.435,7-13-.66-.33-1.32-.66-2-1c2.31-1.98,4.62-3.96,7-6Z" transform="translate(377 359)" fill="#eceae8"/><path d="M0,0c-3.764472,2.166532-7.822884,3.139437-12,4.1875-1.067344.285205-1.067344.285205-2.15625.576172C-20.596164,6.391673,-20.596164,6.391673,-24,5c.99,0,1.98,0,3,0c0-.66,0-1.32,0-2c2.559517-.700784,5.121597-1.385852,7.6875-2.0625c1.081846-.29874,1.081846-.29874,2.185547-.603516C-7.076135,-0.720338,-4.117654,-1.291335,0,0Z" transform="translate(843 295)" fill="#efe8e4"/><path d="M0,0c-.99.33-1.98.66-3,1c0,.66,0,1.32,0,2-5.94,0-11.88,0-18,0c0-.66,0-1.32,0-2c7.027473-.665886,13.940147-1.117664,21-1Z" transform="translate(881 290)" fill="#eee7e4"/><path d="M0,0c0,.33,0,.66,0,1-2.560558.532572-5.122663,1.051318-7.6875,1.5625-1.081846.227197-1.081846.227197-2.185547.458984C-13.888848,3.809975,-16.982919,4.196409,-21,3c6.642274-3.618894,13.652391-4.597306,21-3Z" transform="translate(363 248)" fill="#efe8e4"/><path d="M0,0c.33,0,.66,0,1,0c.195947,3.145368.38034,6.291306.5625,9.4375.056074.897832.112148,1.795664.169922,2.720703.04834.854004.09668,1.708008.146484,2.587891.047132.790759.094263,1.581518.142823,2.39624C2,19,2,19,1,20c-.234278,2.015946-.413361,4.038474-.5625,6.0625-.083789,1.104727-.167578,2.209453-.253906,3.347656C0.123008,30.264805,0.062422,31.119453,0,32c-.33,0-.66,0-1,0-.154981-10.710927.321578-21.314854,1-32Z" transform="translate(829 488)" fill="#f4eeeb"/><path d="M0,0c.66,1.32,1.32,2.64,2,4c.99-1.32,1.98-2.64,3-4-.497307,4.973065-1.553023,8.637998-4,13-.33,0-.66,0-1,0C0,8.71,0,4.42,0,0Z" transform="translate(363 598)" fill="#ededec"/><path d="M0,0C2,3,2,3,1.320313,6.574219C0.935085,7.949082,0.536099,9.320149,0.125,10.6875c-.199805.701895-.399609,1.403789-.605469,2.126953C-0.975296,14.546349,-1.486132,16.273657,-2,18c-.66-.33-1.32-.66-2-1c1.088967-5.757622,2.293363-11.392478,4-17Z" transform="translate(820 566)" fill="#f0eae7"/><path d="M0,0c1.751288.283829,3.501.577395,5.25.875c1.461797.243633,1.461797.243633,2.953125.492188C10.772641,1.948558,12.720711,2.708403,15,4c-4.104828,1.133143-6.759507.783281-10.8125-.4375-1.46373-.431191-1.46373-.431191-2.957031-.871094C0.494414,2.463242,-0.241641,2.235078,-1,2c.33-.66.66-1.32,1-2Z" transform="translate(307 749)" fill="#efe8e5"/><path d="M0,0c0,.66,0,1.32,0,2-4.62.33-9.24.66-14,1-.33-.66-.66-1.32-1-2c5.050022-1.035902,9.874164-1.102517,15-1Z" transform="translate(858 292)" fill="#efe8e6"/><path d="M0,0C5.333333,4,10.666667,8,16,12c-.99.495-.99.495-2,1C8.856535,9.73911,3.995583,6.640032,0,2c0-.66,0-1.32,0-2Z" transform="translate(585 699)" fill="#eeefed"/><path d="M0,0c.66.33,1.32.66,2,1-2.97,2.97-5.94,5.94-9,9c0-1.333333,0-2.666667,0-4-.66-.33-1.32-.66-2-1c1.45264-.863813,2.912316-1.715805,4.375-2.5625c1.218164-.713496,1.218164-.713496,2.460938-1.441406C-1.449922,0.667383,-0.735781,0.338672,0,0Z" transform="translate(604 611)" fill="#edebeb"/><path d="M0,0c1.179492.203672,2.358984.407344,3.574219.617188.903633.167578,1.807265.335156,2.738281.507812-.33.66-.66,1.32-1,2-10.558087-.963554-10.558087-.963554-15-2C-5.844198,-1.437201,-4.455593,-0.794066,0,0Z" transform="translate(406.688 247.875)" fill="#efe8e5"/><path d="M0,0c0,.66,0,1.32,0,2-1.934555.38991-3.872818.761453-5.8125,1.125-1.078945.208828-2.157891.417656-3.269531.632813C-12,4,-12,4,-15,2c1.561168-.339516,3.124013-.671325,4.6875-1c.870117-.185625,1.740234-.37125,2.636719-.5625C-5.06287,0.01028,-2.64187,-0.076162,0,0Z" transform="translate(395 751)" fill="#f0e9e5"/><path d="M0,0c-3.046963,1.694339-5.828215,2.494671-9.25,3.125-1.338047.251367-1.338047.251367-2.703125.507813C-12.628594,3.753984,-13.304062,3.875156,-14,4c.66-.33,1.32-.66,2-1c0-.66,0-1.32,0-2c4.412257-1.470752,7.482816-2.368844,12-1Z" transform="translate(533 240)" fill="#efe8e5"/><path d="M0,0c.66.33,1.32.66,2,1-3.3,3.63-6.6,7.26-10,11-.66-.33-1.32-.66-2-1c1.102811-1.27201,2.207308-2.542559,3.3125-3.8125.614883-.707695,1.229766-1.415391,1.863281-2.144531C-3.266657,3.298633,-1.673411,1.63222,0,0Z" transform="translate(303 288)" fill="#b1252a"/><path d="M0,0C3.367204,1.393326,4.985952,2.978929,7,6C4,6,4,6,1.8125,4.125C0,2,0,2,0,0Z" transform="translate(676 293)" fill="#e7d4d3"/><path d="M0,0C4,1,4,1,4,1L0,0Z" transform="translate(366 244)" fill="#f2e8e5"/><path d="M0,0C3,1,3,1,3,1L0,0Z" transform="translate(375 757)" fill="#f1e8e5"/><path d="" fill="#f1e8e7"/><path d="M0,0C2,1,2,1,2,1L0,0Z" transform="translate(526 779)" fill="#f0e8e7"/><path d="M0,0C2,1,2,1,2,1L0,0Z" transform="translate(323 756)" fill="#efe7e4"/><path d="" fill="#f1e9e6"/><path d="" fill="#f0e6e5"/><path d="M0,0C2,1,2,1,2,1L0,0Z" transform="translate(548 234)" fill="#f1e9e5"/><path d="" fill="#f0e7e6"/><path d="" fill="#efe7e5"/><path d="" fill="#f0e9e5"/><path d="" fill="#efe8e5"/><path d="" fill="#efe8e5"/><path d="" fill="#f0e8e6"/><path d="" fill="#f2eae7"/><path d="" fill="#f3e8e7"/><path d="" fill="#f3eaea"/><path d="" fill="#eee6e3"/><path d="" fill="#f3eae6"/><path d="" fill="#efe7e4"/><path d="" fill="#f1eae6"/><path d="" fill="#f3ebe6"/><path d="" fill="#f3e7e6"/><path d="" fill="#f0e7e3"/><path d="" fill="#f2e7e4"/><path d="" fill="#efe8e7"/><path d="" fill="#f1e7e6"/><path d="" fill="#efe5e6"/><path d="" fill="#f0e7e5"/><path d="" fill="#f1e7e5"/><path d="" fill="#f1e8e6"/><path d="" fill="#f0e8e3"/><path d="" fill="#f1e7e3"/><path d="" fill="#f1e8e8"/><path d="" fill="#f1e9e7"/><path d="" fill="#f1e8e5"/><path d="" fill="#efe8e5"/><path d="" fill="#f0e8e5"/><path d="" fill="#f1e6e4"/><path d="" fill="#f0e7e3"/><path d="" fill="#f2e8e6"/><path d="" fill="#f1e7e5"/><path d="" fill="#f1ebe6"/><path d="" fill="#f0e8e7"/><path d="" fill="#f8f3f0"/><path d="" fill="#f2e9e5"/><path d="" fill="#f3e9e5"/><path d="" fill="#f0eae7"/><path d="" fill="#f5ebe8"/><path d="" fill="#f3ebe7"/><path d="" fill="#f3ece8"/><path d="" fill="#f3ede7"/><path d="" fill="#f4eae8"/><path d="" fill="#f2e9e8"/><path d="" fill="#f3ecea"/><path d="" fill="#f5ece7"/><path d="" fill="#f3e9e6"/><path d="" fill="#f1e9e5"/><path d="" fill="#f4ece9"/><path d="" fill="#f2e9e5"/><path d="" fill="#f3e6e5"/><path d="" fill="#f0e8e5"/><path d="" fill="#f2e9e6"/><path d="" fill="#f1e8e4"/><path d="" fill="#f2eae8"/><path d="" fill="#f2e7e4"/><path d="" fill="#f3e8e5"/><path d="" fill="#f4e9e6"/><path d="" fill="#fffeff"/></svg>
