<svg id="emKXi4HQzfy1" xmlns="http://www.w3.org/2000/svg" xmlns:xlink="http://www.w3.org/1999/xlink" viewBox="0 0 1024 1024" shape-rendering="geometricPrecision" text-rendering="geometricPrecision" project-id="d03324bc5b5e47d9abcc5d6810d29b2c" export-id="0f69826ac85e41e59647c3f1e5e2a9c8" cached="false"><g transform="matrix(.1 0 0-.1 0 1024)"><path d="M4755,7159c-88-13-160-36-245-79-124-62-167-100-545-470-421-413-439-425-875-575-213-73-261-96-333-163-55-52-112-160-127-241-16-88-12-534,5-610c32-134,116-247,231-308c90-48,167-63,332-63h142v-25c0-13,10-50,22-82c72-196,226-344,424-409c79-26,103-29,214-29c113,1,133,3,211,31c107,38,211,106,283,185c59,66,129,195,150,274l12,50l916,3l915,2l12-55c38-171,172-335,341-417c251-124,520-96,729,76c105,87,195,224,222,342l12,51l151,6c165,6,221,18,321,70c77,41,174,138,208,208c54,110,59,154,55,472-4,279-5,295-27,352-64,161-117,202-446,340-397,167-511,250-805,595-288,338-418,433-641,469-79,13-1775,13-1864,0Zm1891-251c66-23,157-82,219-144c28-27,120-130,206-229c353-407,488-505,936-685c120-48,196-84,222-106c65-56,69-78,72-365c2-244,2-256-20-304-58-131-185-190-390-183l-83,3-22,75c-66,226-243,396-476,456-86,22-245,23-330,1-237-62-434-255-484-475l-13-57-911-3-911-2-11,42c-34,133-118,271-214,350-69,58-191,120-281,143-78,20-232,21-316,1-196-45-362-174-448-350-22-44-45-105-52-135l-11-53-142,4c-165,5-208,19-262,81-59,69-66,113-62,389l3,243l27,47c36,60,64,76,243,138c336,116,457,170,595,264c48,32,195,170,410,381c404,398,480,455,653,484c29,5,446,8,927,7c799-1,879-3,926-18ZM4090,5194c132-30,245-121,304-244c29-60,31-73,31-170-1-121-19-182-83-265-165-217-480-234-667-34-25,27-61,80-78,117-30,63-32,73-32,182c0,110,2,119,32,181c69,140,231,243,391,248c18,1,64-6,102-15Zm3125,6c209-34,365-214,365-420c0-139-68-272-183-357-242-178-585-57-671,236-68,231,76,478,309,535c74,18,103,19,180,6Z" fill="#f00"/><path d="M2645,3910c-44-18-70-59-70-111c0-42,5-53,33-81l32-33l561-3l560-2-2-224c-1-165,2-229,12-243c19-32,63-53,109-53c34,0,48,6,76,34l34,34v226v226h1515h1515v-211c0-235,7-266,63-296c47-24,115-12,149,26l28,31v225v225h556c476,0,561,2,588,15c86,41,88,168,2,209-31,15-266,16-2888,15-1569,0-2862-4-2873-9Z" fill="#f00"/></g></svg>
