<svg id="eFyRYuf0DJI1" xmlns="http://www.w3.org/2000/svg" xmlns:xlink="http://www.w3.org/1999/xlink" viewBox="0 0 1024 1024" shape-rendering="geometricPrecision" text-rendering="geometricPrecision" project-id="ed2d733e97494552ab2ba66a70616f9a" export-id="e0b8b89ca196402da287490ac3713bf2" cached="false"><g transform="matrix(.1 0 0-.1 0 1024.019727)"><path d="M4181,8046c-47-26-50-44-51-309c0-215,2-253,17-277c20-35,52-50,104-50c33,0,48,7,75,34l34,34v251c0,270-4,292-51,317-35,17-96,18-128,0Z" fill="#f00"/><path d="M5038,8031l-33-29v-267-267l33-29c24-22,42-29,73-29c48,0,93,24,108,57c7,15,11,114,11,269c0,305-7,324-114,324-36,0-52-6-78-29Z" fill="#f00"/><path d="M5924,8049c-50-25-54-49-54-319v-252l34-34c29-29,41-34,81-34s52,5,81,34l34,34v257v257l-34,34c-29,29-41,34-77,33-24,0-53-5-65-10Z" fill="#f00"/><path d="M3219,7107c-104-36-178-106-217-209-16-39-17-192-20-1762-3-1898-7-1772,60-1872c18-27,58-66,88-86c107-73-27-68,1981-68c1180,0,1825,4,1860,10c116,22,201,86,251,188l33,67v1750v1750l-28,55c-39,75-98,133-171,167l-61,28-1855,2-1855,3-66-23Zm3752-240c21-14,39-37,47-61c10-31,12-382,10-1705-3-1588-4-1667-21-1693-43-62,93-58-1892-58-1973,0-1840-4-1881,57-18,27-19,77-22,1701-2,1843-7,1721,60,1762c33,20,45,20,1849,20h1816l34-23Z" fill="#f00"/><path d="M4913,5740c-233-61-366-286-350-590c9-165,50-272,139-366c83-87,167-126,305-139c225-22,415,103,477,313l15,52h-104-105l-24-47c-47-93-113-133-218-133-148,1-235,97-261,288-14,104,1,219,38,301c49,107,118,155,225,155c102,0,189-58,221-148l13-36h108c59,0,108,2,108,4c0,21-58,159-80,191-105,151-297,210-507,155Z" fill="#f00"/><path d="M3710,5200v-540h355h355v90v90h-250-250v140v140h235h235v90v90h-235-235v130v130h250h250v90v90h-355-355v-540Z" fill="#f00"/><path d="M5680,5365c0-239,4-393,11-427c35-162,153-263,337-290c259-36,460,89,502,311c6,30,10,214,10,417v364h-104-103l-6-42c-4-24-6-198-5-388c2-373,2-375-54-427-53-50-161-68-249-42-50,15-108,76-120,125-4,22-9,204-9,407v367h-105-105v-375Z" fill="#f00"/><path d="M2015,5831c-55-23-80-102-51-159c32-63,35-63,345-60l281,3l26,27c20,19,28,39,32,77c4,47,2,53-31,86l-35,35-273-1c-151,0-283-4-294-8Z" transform="translate(12.14023 192.47266)" fill="#f00"/><path d="M7647.29114,6015.00096c-67-41-67-151-1-191c30-18,52-20,302-20s272,2,302,20c21,13,36,32,44,59c14,47,7,81-25,118l-24,28-284,3c-265,2-285,1-314-17Z" fill="#f00"/><path d="M2004,4961c-63-39-71-132-14-183l30-28h280h280l31,28c26,23,33,38,37,80c4,49,2,54-31,87l-35,35h-273c-250,0-277-2-305-19Z" transform="translate(12.14023 192.47266)" fill="#f00"/><path d="M7647.29114,5155.00096c-67-41-67-151-1-191c30-18,52-20,300-20c300,0,317,3,343,65c18,44,18,69-1,105-29,57-47,60-342,60-247,0-271-2-299-19Z" fill="#f00"/><path d="M1990,4093c-59-53-48-153,20-188c24-12,76-15,292-15c245,0,265,1,296,20c36,22,52,54,52,107c0,27-8,43-34,69l-34,34h-281-281l-30-27Z" transform="translate(12.14023 192.47266)" fill="#f00"/><path d="M7656.29114,4304.00096c-73-30-79-158-9-201c28-17,52-19,296-19c305,0,323,4,349,77c18,49,9,87-29,124l-28,29-279-1c-153,0-288-4-300-9Z" fill="#f00"/><path d="M4177,2819c-42-25-47-55-47-320v-251l34-34c29-29,41-34,81-34s52,5,81,34l34,34v262v262l-29,29c-25,25-37,29-83,29-29,0-61-5-71-11Z" fill="#f00"/><path d="M5037,2806c-14-13-29-35-32-48s-5-135-3-272l3-248l33-29c26-23,42-29,78-29c39,0,51,5,80,34l35,35-3,266-3,267-28,24c-40,34-123,34-160,0Z" fill="#f00"/><path d="M5917,2819c-42-25-47-55-47-320v-251l34-34c29-29,41-34,81-34s52,5,81,34l34,34v251c0,267-5,297-49,321-25,13-111,13-134-1Z" fill="#f00"/></g></svg>
