<svg id="e5OCRYqcEep1" xmlns="http://www.w3.org/2000/svg" xmlns:xlink="http://www.w3.org/1999/xlink" viewBox="0 300 1024 400" shape-rendering="geometricPrecision" text-rendering="geometricPrecision" project-id="6e31c176d49e4d76837ec824f82b1776" export-id="93f640bf9506472db4a2c86918ec5e6c" cached="false"><path d="M0,0c0,.66,0,1.32,0,2C9.24,2,18.48,2,28,2c1.318575,2.637151,1.119917,4.598326,1.113525,7.55127-.000113,1.741578-.000113,1.741578-.000228,3.518341-.005162,1.258356-.010323,2.516713-.015641,3.813202-.001415,1.28454-.00283,2.569081-.004287,3.892547-.00382,3.416208-.013645,6.832374-.024704,10.248566-.010227,3.485508-.014797,6.971024-.019837,10.456543C29.038101,48.32033,29.021031,55.160163,29,62c.340917-.852292.681834-1.704584,1.033081-2.582703C37.688721,40.278198,45.34436,21.139099,53,2c8.91,0,17.82,0,27,0-1.570884,4.712653-3.317469,9.156855-5.351562,13.667969-.331028.739987-.662055,1.479974-1.003113,2.242386C72.558352,20.33749,71.466952,22.762601,70.375,25.1875c-.763887,1.700497-1.527721,3.401018-2.291504,5.101563-1.9701,4.382443-3.945368,8.762534-5.923096,13.14154-.757056,1.6763-1.513747,3.352765-2.270019,5.029419C24.154323,127.686531,24.154323,127.686531,1.5625,136.3125C-6.311148,137.831976,-16.509355,139.745323,-24,136c.583591-8.316168,2.737994-16.014593,5-24c.75668.158555,1.513359.317109,2.292969.480469c6.070806,1.165104,10.519541.732462,15.910156-2.203125C2.891201,107.655603,4.603109,104.190672,6,100C5.823946,85.661937,3.648126,71.215175,2.156738,56.97168c-1.22516-11.738335-2.392659-23.439881-2.840698-35.237732C-0.810498,18.593169,-0.999552,16.001344,-2,13c-.204961,1.143398-.409922,2.286797-.621094,3.464844-.271929,1.490923-.544076,2.981806-.816406,4.472656-.202061,1.132119-.202061,1.132119-.408203,2.287109C-4.886719,28.886719,-4.886719,28.886719,-6,30c-3.490332.381932-6.977495.720692-10.478516.986328C-21.615683,31.489797,-25.162817,32.284985,-29,36c-3.40421,7.277217-5.053995,15.058691-6.542969,22.90625-.213929,1.087123-.427858,2.174246-.648269,3.294312-.673723,3.431586-1.335469,6.865341-1.996262,10.299438-.673917,3.462148-1.350306,6.923799-2.028397,10.385132-.419204,2.144037-.835557,4.288634-1.248748,6.433838-.187222.965306-.374443,1.930613-.567337,2.925171-.163364.848404-.326727,1.696809-.495041,2.570922C-43,97,-43,97,-44,100c-9.9,0-19.8,0-30,0c1.185865-7.11519,2.378113-14.189351,3.787598-21.256836.166102-.840559.332205-1.681119.503341-2.54715.539341-2.727136,1.081202-5.453764,1.623124-8.180389.378443-1.910959.756726-3.82195,1.134857-5.732971.988063-4.991304,1.978277-9.982178,2.968963-14.972962c1.013586-5.108178,2.025104-10.216765,3.036805-15.325317C-58.965547,21.989185,-56.983315,11.994486,-55,2c8.58,0,17.16,0,26,0c0,3.63,0,7.26,0,11c.580078-.68707,1.160156-1.374141,1.757813-2.082031.781171-.901055,1.562343-1.80211,2.367187-2.730469c1.148555-1.33998,1.148555-1.33998,2.320313-2.707031C-15.687264,-1.187443,-8.887123,-1.258525,0,0ZM-1,3c0,1.98,0,3.96,0,6c.33,0,.66,0,1,0C0,7.02,0,5.04,0,3c-.33,0-.66,0-1,0Z" transform="translate(714 463)" fill="#d91701"/><path d="M0,0C9.9,0,19.8,0,30,0c-2.25,15.75-2.25,15.75-3.507812,21.710938-.264258,1.263281-.528516,2.526562-.800782,3.828125-.269414,1.265859-.538828,2.531718-.816406,3.835937-.280359,1.333247-.560308,2.66658-.839844,4C23.36076,36.584197,22.682328,39.792481,22,43c.606182-.411372,1.212363-.822744,1.836914-1.246582.801475-.539956,1.602949-1.079912,2.428711-1.63623.791807-.535123,1.583613-1.070245,2.399414-1.621583C36.114979,33.723718,43.235763,33.189308,52,34c6.660619,1.473021,11.340247,4.581503,15.1875,10.1875c8.081583,15.476069,3.395185,36.073958-1.375,52C60.711587,112.076912,52.098436,126.844641,37,135c-7.609039,3.329687-15.159661,3.957212-23,1-4.549605-3.063863-7.71663-6.622174-11-11-.99,3.3-1.98,6.6-3,10-9.24,0-18.48,0-28,0c5.831919-29.538107,11.835713-59.038008,17.958496-88.517033.540992-2.605503,1.081355-5.211137,1.621582-7.816799.861128-4.152498,1.724143-8.3046,2.588669-12.456392.320914-1.542083.641332-3.08427.961212-4.626568.442744-2.133697.887567-4.266951,1.332932-6.400103.249635-1.199321.49927-2.398643.756469-3.634307C-1.92997,7.681643,-0.960347,3.841387,0,0ZM20,61c-3.930494,7.48104-5.500315,15.796335-7.1875,24-.259746,1.206563-.519492,2.413125-.787109,3.65625C9.111139,100.332919,9.111139,100.332919,9.875,112.0625c2.833993,2.583935,5.069333,2.929042,8.847656,3.125C22.483318,114.877874,24.265197,113.548339,27,111c9.972929-12.159975,12.358884-31.066556,12.300781-46.328125C38.994859,61.954332,38.482236,60.283586,37,58c-5.82709-2.913545-12.501999-1.393396-17,3Z" transform="translate(332 428)" fill="#fefefe"/><path d="M0,0C10.23,0,20.46,0,31,0c-4.507135,23.698807-9.249603,47.348956-14,71c.494839-.621086.989678-1.242173,1.499512-1.88208C22.998988,63.48048,27.535396,57.87675,32.125,52.3125c.581367-.707051,1.162734-1.414102,1.761719-2.142578c1.15266-1.398922,2.319332-2.78643,3.500488-4.161377c1.648079-1.943396,1.648079-1.943396,2.78418-4.069824C41.621055,39.613077,42.636357,38.424782,45,37c5.649989-.864731,11.179905-.659534,16.875-.4375c1.56243.035142,3.124937.067076,4.6875.095703C70.376877,36.735051,74.187605,36.855663,78,37c-2.331039,3.615214-4.665007,6.920477-7.644531,10.023438-1.016104,1.067343-1.016104,1.067343-2.052735,2.15625-.698027.724453-1.396054,1.448906-2.115234,2.195312C58.380758,59.495615,58.380758,59.495615,51,68c-.532715.543013-1.06543,1.086025-1.614288,1.645493-2.537359,2.835817-4.345242,4.938528-4.456803,8.841873.499034,2.879098,1.213569,5.604356,2.039841,8.407165.405148,1.542004.405148,1.542004.818481,3.115158C48.656382,93.287946,49.57638,96.549218,50.5,99.8125c.883244,3.25491,1.755915,6.512513,2.627075,9.770676.544725,2.021733,1.098427,4.041078,1.662842,6.057403.389196,1.401516.389196,1.401516.786255,2.831345.340252,1.206238.340252,1.206238.687378,2.436844C57.372444,125.563325,58.144064,130.292354,59,135c-10.89,0-21.78,0-33,0-2.64-11.55-5.28-23.1-8-35-7.351753,6.301502-8.525728,8.060821-10.289062,16.738281-.198033.962044-.396065,1.924087-.600098,2.915283-.242827,1.207449-.485654,2.414898-.73584,3.658936C5.59125,127.169375,4.8075,131.02625,4,135c-9.9,0-19.8,0-30,0c1.125001-10.125007,1.125001-10.125007,1.935272-14.195343.182151-.924666.364301-1.849331.551972-2.802017.197407-.982009.394815-1.964018.598205-2.975785.209906-1.059866.419812-2.119732.636078-3.211715.690805-3.483373,1.386946-6.965657,2.083161-10.447952.484956-2.439785.96958-4.879636,1.453887-7.31955c1.274518-6.416227,2.553578-12.83154,3.833588-19.246674c1.294078-6.487708,2.582974-12.976448,3.872681-19.465026c1.894688-9.529265,3.791191-19.058165,5.690918-28.586426.193359-.969864.386718-1.939727.585937-2.93898C-3.175249,15.873075,-1.587321,7.936607,0,0Z" transform="translate(804 428)" fill="#d91801"/><path d="M0,0C10.23,0,20.46,0,31,0c-1.010625,4.766953-2.02125,9.533906-3.0625,14.445313-.638687,3.025904-1.277015,6.051876-1.914062,9.078125-1.010518,4.800223-2.02233,9.600147-3.041993,14.398437-.822264,3.869785-1.638601,7.740778-2.450897,11.612667-.310471,1.474767-.623052,2.949092-.937805,4.422951-.441506,2.069179-.875391,4.139824-1.307587,6.210964-.248708,1.176924-.497417,2.353848-.753662,3.566437C16.781295,68.34356,16.619383,72.512993,18,77c5.729769.343786,10.112518.409871,15-3c4.196476-5.130847,5.32989-10.346389,6.6875-16.75.240571-1.085874.481143-2.171748.729004-3.290527.707347-3.2143,1.40114-6.431022,2.088928-9.649536.545184-2.546343,1.094516-5.091769,1.64447-7.637085C46.78936,24.453368,49.40191,12.228344,52,0c9.9,0,19.8,0,30,0-.627027,5.01622-1.272155,9.688093-2.319336,14.585938-.264076,1.2433-.528153,2.486601-.800232,3.767578-.288219,1.340505-.57649,2.681-.864807,4.021484-.300785,1.410741-.601255,2.82155-.901428,4.232422-.790837,3.713316-1.585584,7.425785-2.381287,11.138061-.790636,3.69117-1.578199,7.382995-2.365722,11.07483-.15386.72127-.307719,1.442541-.46624,2.185668-.308667,1.447019-.617319,2.89404-.925957,4.341065-.456864,2.141226-.914199,4.28235-1.371597,6.423462C67.026762,73.838339,64.504551,85.916973,62,98c-8.91,0-17.82,0-27,0c.33-2.97.66-5.94,1-9-.594258.458906-1.188516.917813-1.800781,1.390625C23.033971,98.656034,12.765819,101.429079,-1,100c-4.939567-1.308397-8.962392-3.956166-12.027344-8.132812-6.522321-12.520761-.722308-29.890086,2.03125-42.824219.286611-1.363741.572811-2.727569.858628-4.091477.592465-2.821557,1.188544-5.642316,1.787612-8.462478.76792-3.615645,1.528343-7.232817,2.286378-10.850545.587118-2.799646,1.177118-5.598678,1.76811-8.397508.281752-1.335134.562831-2.670411.843219-4.005833.389536-1.85216.783166-3.703457,1.177001-5.554708.22269-1.051739.445381-2.103478.674819-3.187088C-1,2,-1,2,0,0Z" transform="translate(163 465)" fill="#fefefe"/><path d="M0,0c1.184084.007372,1.184084.007372,2.39209.014893c9.273322.186,17.445347,2.311394,24.73291,8.297607c6.524694,6.796556,8.561504,15.699694,8.4375,24.875-.008298.814446-.016597,1.628892-.025146,2.468018C35.067403,53.080491,30.083442,73.984206,18.125,87.3125c-.66,0-1.32,0-2,0-.237187.587813-.474375,1.175625-.71875,1.78125C11.337651,96.139372,1.584573,99.9806,-5.875,102.3125c-13.781601,3.145407-29.810785,2.669941-41.9375-4.8125-7.559562-8.017717-9.678518-18.429559-9.410156-29.152344c1.43679-20.470403,8.025295-41.417502,23.097656-55.910156C-24.185121,4.011541,-12.92616,-0.095554,0,0ZM-16.0625,28.8125c-4.417968,8.531248-6.318958,17.372237-8.0625,26.75-.175312.93457-.350625,1.869141-.53125,2.832031-1.999415,11.323244-1.999415,11.323244,1.78125,21.917969c1.52951,1.52951,2.933604,1.353935,5.0625,1.5c5.006059-.095505,7.635202-1.716218,11.152344-5.191406C1.785625,65.698869,4.210928,49.114039,4.375,35.6875c.025781-1.271016.051563-2.542031.078125-3.851562C4.103221,28.078636,3.498863,26.220482,1.125,23.3125c-7.519627-2.130561-12.106417-.306952-17.1875,5.5Z" transform="translate(462.875 461.688)" fill="#fefefe"/><path d="M0,0C6.471091,4.586034,10.309135,10.510547,11.722656,18.332031C13.021554,30.827059,11.96845,43.09465,8,55c-17.16,0-34.32,0-52,0c0,6.27,0,12.54,0,19c3.691667,3.39375,3.691667,3.39375,7.9375,3c4.326516-.746505,6.30435-2.552312,9.0625-6c.433125-1.029961.86625-2.059922,1.3125-3.121094c3.218452-3.447672,4.198567-3.371531,8.765625-3.683593c2.39015-.053115,4.781141-.075421,7.171875-.070313c1.833047-.030937,1.833047-.030937,3.703125-.0625C-3.030571,64.01537,-0.016597,63.995562,3,64c.33.66.66,1.32,1,2-4.625145,12.230508-12.443358,22.702468-24,29-13.494302,5.997468-28.463113,6.328619-42.585937,2.253906C-67.834372,94.99165,-71.328132,90.994862,-74,86c-6.640712-18.352926-1.055725-41.350317,6.367188-58.695312C-65.231901,22.445427,-62.388718,18.217237,-59,14c.543984-.718008,1.087969-1.436016,1.648438-2.175781C-43.94387,-4.888186,-19.034258,-8.698307,0,0ZM-34,21c-1.878282,2.839916-1.878282,2.839916-3.3125,6.0625-.511758,1.063477-1.023516,2.126953-1.550781,3.222656C-40.128739,32.816934,-40.128739,32.816934,-40,35c7.26,0,14.52,0,22,0c1.428413-5.713653,1.818236-10.676665-1-16-5.272145-2.636072-10.537104-1.400641-15,2Z" transform="translate(944 466)" fill="#d91801"/><path d="M0,0C29.04,0,58.08,0,88,0c-2.25,14.625-2.25,14.625-3.625,20.8125-.390586,1.773105-.390586,1.773105-.789062,3.582031C83.392578,25.254336,83.199219,26.114141,83,27c-3.622507.853199-6.807292,1.065555-10.519531.878906-1.021582-.04834-2.043164-.096679-3.095703-.146484-1.055098-.056074-2.110196-.112149-3.197266-.169922-1.074434-.052207-2.148867-.104414-3.255859-.158203C60.287433,27.275024,57.643708,27.139021,55,27c-.035026.538017-.070052,1.076035-.10614,1.630356-.668268,8.209656-2.386755,16.176855-4.096985,24.2173-.323388,1.539972-.646273,3.080049-.968689,4.620224-.848408,4.046971-1.702849,8.092643-2.558838,12.138016-1.353409,6.401852-2.697008,12.805776-4.042038,19.209393-.489971,2.330768-.981196,4.661271-1.472549,6.991748-2.178652,10.349373-4.286965,20.710216-6.283631,31.096543-.273331,1.400156-.273331,1.400156-.552185,2.828598-.232363,1.210543-.232363,1.210543-.469421,2.445541C34,134,34,134,33,135c-2.375685.088397-4.722087.115303-7.097656.097656-1.063288-.002122-1.063288-.002122-2.148056-.004287-2.272305-.005615-4.544513-.018169-6.816788-.030869-1.537108-.005013-3.074217-.009576-4.611328-.013672C8.550744,135.03778,4.775388,135.020506,1,135c.728682-8.81874,2.633777-17.378188,4.457031-26.019531.348104-1.665502.695808-3.331087,1.043137-4.99675.913799-4.377504,1.832461-8.753972,2.752334-13.130203c1.459962-6.950531,2.911837-13.902759,4.3652-20.854672.52258-2.498062,1.046134-4.995919,1.569829-7.493748c1.967308-9.392845,3.910585-18.789319,5.719406-28.214279C21.895853,29.208294,21.895853,29.208294,23,27c-9.24.33-18.48.66-28,1-4.240021-8.480042,2.868113-18.761821,5-28Z" transform="translate(83 428)" fill="#fefefe"/><path d="M0,0C5.782403,6.28109,7.019592,11.629265,6.839844,19.941406c-.04125,2.701875-.0825,5.40375-.125,8.1875-8.91,0-17.82,0-27,0-.66-3.3-1.32-6.6-2-10-1.640374-1.640374-3.494769-1.249113-5.75-1.3125-3.46072.054461-5.147808.262447-8.3125,1.8125-2.788,3.597419-2.865356,5.954903-2.9375,10.5c2.611351,3.917027,4.298167,3.854246,8.8125,4.9375c1.359825.340655,2.719193.683139,4.078125,1.027344.686426.171284,1.372851.342568,2.080078.519043c17.539981,4.460962,17.539981,4.460962,23.341797,11.203613c3.68371,7.230987,2.913591,13.636961.769531,21.3125-2.544718,7.055391-6.426015,13.050986-12.082031,18-.928125.845625-1.85625,1.69125-2.8125,2.5625-11.223836,9.128337-25.963192,10.266181-39.875,8.875-7.762203-1.225611-13.933425-3.328852-19.03125-9.527343-4.371157-7.297405-3.654673-14.694864-3.28125-22.910157c9.24,0,18.48,0,28,0c.33,2.64.66,5.28,1,8c4.040812,2.693875,7.255893,2.658672,12,2c3.837321-2.041128,4.783476-3.472812,6.4375-7.5.782435-3.289634.782435-3.289634-.035156-5.589843-2.021651-2.753725-4.01569-3.069249-7.277344-3.972657-1.164024-.33-2.328047-.66-3.527344-1-3.337419-.869686-6.681834-1.694195-10.035156-2.5-7.328639-1.810491-12.908055-4.35646-17.5625-10.4375-3.090711-6.718937-2.408675-14.620422-.175781-21.5625c5.537408-12.957098,14.188989-21.159445,27.175781-26.4375C-29.564021,-8.255979,-9.958183,-8.153795,0,0Z" transform="translate(579.285 467.871)" fill="#d91801"/><path d="M0,0c-.621207,6.425613-1.634769,12.630728-3,18.9375-.177891.848848-.355781,1.697695-.539062,2.572266C-4.865443,27.730886,-4.865443,27.730886,-6,30c5.61,0,11.22,0,17,0-.641085,3.646728-1.287622,7.292338-1.9375,10.9375-.182402,1.040918-.364805,2.081836-.552734,3.154297-.26587,1.484033-.26587,1.484033-.53711,2.998047-.162341.916443-.324682,1.832885-.491943,2.777099C7,52,7,52,6,53c-2.862676.073252-5.700719.092382-8.5625.0625-.806309-.004512-1.612617-.009023-2.443359-.013672C-7.003938,53.037005,-9.001978,53.019069,-11,53c-.139219,1.68416-.139219,1.68416-.28125,3.402344-.867207,7.803332-2.63392,15.47745-4.21875,23.160156-.484362,2.353343-.967462,4.706913-1.446899,7.061264-.296453,1.455407-.595651,2.910258-.898194,4.36441C-18.794438,95.64376,-19.458766,100.279057,-20,105c.915234-.023203,1.830469-.046406,2.773438-.070312c1.188515-.018047,2.377031-.036094,3.601562-.054688c1.775039-.034805,1.775039-.034805,3.585938-.070312C-7,105,-7,105,-5,107c-.108398,2.03125-.108398,2.03125-.609375,4.5-.177891.886875-.355781,1.77375-.539062,2.6875-.297774,1.392188-.297774,1.392188-.601563,2.8125-.183047.928125-.366094,1.85625-.554687,2.8125C-8.733059,126.733059,-8.733059,126.733059,-11,129c-5.519621,1.366679-11.220166,1.255725-16.875,1.3125-.955195.029004-1.910391.058008-2.894531.087891C-37.05268,130.456413,-41.774099,129.626413,-47,126c-4.580122-4.697561-5.170562-8.14326-5.143066-14.566772.283407-4.820098,1.3581-9.509884,2.330566-14.230103.22196-1.111192.443921-2.222384.672607-3.367249C-48.433806,90.305756,-47.7176,86.777796,-47,83.25c.716252-3.542325,1.430275-7.085063,2.139893-10.628723.440972-2.20002.88598-4.399235,1.335449-6.597534.300311-1.492402.300311-1.492402.606689-3.014954.177649-.872997.355298-1.745995.53833-2.645447.485374-2.62263.485374-2.62263.379639-6.363342-3.3-.33-6.6-.66-10-1c1.13678-7.715591,2.404728-15.365486,4-23c3.96,0,7.92,0,12,0c.195938-1.55332.391875-3.106641.59375-4.707031.300157-2.035441.602347-4.070584.90625-6.105469.12375-1.02416.2475-2.04832.375-3.103516C-33.669122,13.187257,-33.16078,10.69428,-32,8c3.08782-1.820484,4.622515-2.376912,8-3c1.841211-.46198,3.682353-.924234,5.523438-1.386719c1.949215-.439426,3.899772-.872938,5.851562-1.300781c1.494668-.337412,1.494668-.337412,3.019531-.681641C-2.298822,0,-2.298822,0,0,0Z" transform="translate(642 435)" fill="#d91801"/><path d="M0,0c-.459395,10.22153-2.78289,20.048786-5,30-3.221369.729047-6.079566,1.074314-9.375.9375-5.515343-.036647-9.795647.701121-14.3125,4.0625-7.318188,9.493865-8.576394,22.551384-10.9375,34-.397621,1.893401-.796052,3.786632-1.195312,5.679688C-42.593074,83.110949,-44.31029,91.551451,-46,100c-9.9,0-19.8,0-30,0c.677881-6.100929,1.480797-11.901046,2.75-17.868652.174104-.835303.348208-1.670605.527588-2.53122.570035-2.729566,1.146095-5.45782,1.722412-8.186065.400059-1.908025.799793-3.816117,1.199219-5.724274.834637-3.982923,1.672067-7.965244,2.511719-11.947113c1.076832-5.106989,2.148351-10.215074,3.218017-15.323569.823774-3.932739,1.649464-7.865074,2.47583-11.797269.395905-1.884212.791415-3.768507,1.186524-5.652886.551076-2.625943,1.10452-5.251375,1.658691-7.876667.163147-.779238.326294-1.558476.494385-2.361328C-57.625803,7.757407,-56.962153,4.88646,-56,2c8.91,0,17.82,0,27,0c0,3.63,0,7.26,0,11c.496289-.603281.992578-1.206562,1.503906-1.828125C-22.553833,5.35745,-18.57952,1.266676,-11.0625,-0.8125C-7.22149,-1.047664,-3.802045,-0.589972,0,0Z" transform="translate(314 463)" fill="#fefefe"/><path d="" fill="#fff"/><path d="" fill="#d32916"/><path d="" fill="#fffffd"/><path d="" fill="#d11904"/><path d="" fill="#fffefe"/><path d="" fill="#da4635"/><path d="" fill="#fff"/><path d="" fill="#d71c05"/><path d="" fill="#d31901"/><path d="" fill="#efaba0"/><path d="" fill="#fff"/><path d="" fill="#fff"/><path d="" fill="#d51702"/><path d="" fill="#d41a02"/><path d="" fill="#d21902"/><path d="" fill="#d41b04"/><path d="" fill="#d41a02"/><path d="" fill="#fffeff"/><path d="" fill="#fff"/><path d="" fill="#fff"/><path d="" fill="#dc2005"/><path d="" fill="#fff"/><path d="" fill="#fff"/><path d="" fill="#df412f"/><path d="" fill="#fffeff"/></svg>
