<svg id="ejlpegGSOkf1" xmlns="http://www.w3.org/2000/svg" xmlns:xlink="http://www.w3.org/1999/xlink" viewBox="0 0 1024 1024" shape-rendering="geometricPrecision" text-rendering="geometricPrecision" project-id="3fad545ec83c4a58881a459d5bf1f4c9" export-id="af3c9bbcbcb8487787771fef1df4b3f7" cached="false"><g transform="matrix(.1 0 0-.1 0 1024)"><path d="M3824,7515c-254-55-469-241-560-485-18-47-37-121-44-165-8-57-10-380-8-1120c4-1172-3-1076,84-1255c40-81,60-109,138-186c77-77,107-98,193-141c187-94,82-88,1528-88c1172,0,1275,1,1337,17c245,63,452,247,535,476c53,146,53,135,53,1232c0,1101,1,1089-54,1234-70,186-231,356-411,435-27,12-86,31-130,42-77,18-129,19-1340,18-1011,0-1272-3-1321-14Zm2612-289c125-33,253-135,309-247c57-111,55-78,55-1176c0-703-3-1028-11-1065-32-153-155-294-307-352l-57-21-1240-3c-893-2-1257,0-1300,8-197,38-355,199-385,396-7,47-10,392-8,1074c3,896,5,1010,20,1051c61,173,181,291,339,333c78,21,2507,23,2585,2Z" fill="#f00"/><path d="M6180,6924c-8-3-169-161-356-352l-342-346-68,32c-92,42-152,54-259,55-351,1-635-281-635-633c0-144,63-312,155-417c65-73,179-147,278-179c104-33,258-38,351-10c244,72,420,268,462,511c23,130,7,238-57,391-12,31-11,34,27,80c22,27,164,198,316,380c178,214,278,342,283,362c9,41-19,98-56,117-27,15-69,18-99,9Zm-895-957c107-55,175-162,175-278c0-99-23-153-94-225-77-77-135-99-240-92-341,23-405,495-83,610c73,26,175,20,242-15Z" fill="#f00"/><path d="M4295,3843c-66-10-65-6-65-325v-289l35-15c65-27,184-15,207,20c4,6,8,138,8,293c0,282,0,283-22,297-25,16-116,27-163,19Z" fill="#f00"/><path d="M4295,3843c-66-10-65-6-65-325v-289l35-15c65-27,184-15,207,20c4,6,8,138,8,293c0,282,0,283-22,297-25,16-116,27-163,19Z" transform="translate(0 4584.683295)" fill="#f00"/><path d="M4295,3843c-66-10-65-6-65-325v-289l35-15c65-27,184-15,207,20c4,6,8,138,8,293c0,282,0,283-22,297-25,16-116,27-163,19Z" transform="matrix(0 1-1 0 11125.997034 955.94093)" fill="#f00"/><path d="M4295,3843c-66-10-65-6-65-325v-289l35-15c65-27,184-15,207,20c4,6,8,138,8,293c0,282,0,283-22,297-25,16-116,27-163,19Z" transform="matrix(0 1-1 0 5984.413274 955.94093)" fill="#f00"/><path d="M5080,3843c-60-11-60-10-60-317c0-155,4-286,8-293c29-45,204-45,234,1c4,6,8,135,8,287c0,208-3,279-13,293-21,28-105,42-177,29Z" fill="#f00"/><path d="M5080,3843c-60-11-60-10-60-317c0-155,4-286,8-293c29-45,204-45,234,1c4,6,8,135,8,287c0,208-3,279-13,293-21,28-105,42-177,29Z" transform="translate(0 4584.683295)" fill="#f00"/><path d="M5080,3843c-60-11-60-10-60-317c0-155,4-286,8-293c29-45,204-45,234,1c4,6,8,135,8,287c0,208-3,279-13,293-21,28-105,42-177,29Z" transform="matrix(0 1-1 0 11126.030721 726.613131)" fill="#f00"/><path d="M5080,3843c-60-11-60-10-60-317c0-155,4-286,8-293c29-45,204-45,234,1c4,6,8,135,8,287c0,208-3,279-13,293-21,28-105,42-177,29Z" transform="matrix(0 1-1 0 5984.446961 726.613131)" fill="#f00"/><path d="M5875,3843c-11-3-28-12-37-21-16-14-18-41-18-297c0-218,3-285,13-299s32-20,84-23c80-6,114,0,137,23c14,13,16,55,16,299c0,284,0,285-22,299-24,15-140,28-173,19Z" fill="#f00"/><path d="M5875,3843c-11-3-28-12-37-21-16-14-18-41-18-297c0-218,3-285,13-299s32-20,84-23c80-6,114,0,137,23c14,13,16,55,16,299c0,284,0,285-22,299-24,15-140,28-173,19Z" transform="translate(0 4584.683295)" fill="#f00"/><path d="M5875,3843c-11-3-28-12-37-21-16-14-18-41-18-297c0-218,3-285,13-299s32-20,84-23c80-6,114,0,137,23c14,13,16,55,16,299c0,284,0,285-22,299-24,15-140,28-173,19Z" transform="matrix(0 1-1 0 11109.445144 441.694504)" fill="#f00"/><path d="M5875,3843c-11-3-28-12-37-21-16-14-18-41-18-297c0-218,3-285,13-299s32-20,84-23c80-6,114,0,137,23c14,13,16,55,16,299c0,284,0,285-22,299-24,15-140,28-173,19Z" transform="matrix(0 1-1 0 5967.861384 441.694504)" fill="#f00"/></g></svg>
